<svg width="189" height="51" viewBox="0 0 189 51" fill="none" xmlns="http://www.w3.org/2000/svg">
<rect opacity="0.2" x="24" y="15" width="3" height="3" fill="#FF2239"/>
<rect opacity="0.2" x="24" y="18" width="3" height="3" fill="#FF2239"/>
<rect x="24" y="21" width="3" height="3" fill="#FF2239"/>
<rect opacity="0.2" x="24" y="24" width="3" height="3" fill="#FF2239"/>
<rect opacity="0.2" x="24" y="27" width="3" height="3" fill="#FF2239"/>
<rect opacity="0.2" x="24" y="30" width="3" height="3" fill="#FF2239"/>
<rect opacity="0.2" x="24" y="33" width="3" height="3" fill="#FF2239"/>
<rect opacity="0.2" x="24" y="36" width="3" height="3" fill="#FF2239"/>
<rect opacity="0.2" x="27" y="15" width="3" height="3" fill="#FF2239"/>
<rect x="27" y="18" width="3" height="3" fill="#FF2239"/>
<rect opacity="0.2" x="27" y="21" width="3" height="3" fill="#FF2239"/>
<rect opacity="0.2" x="27" y="24" width="3" height="3" fill="#FF2239"/>
<rect opacity="0.2" x="27" y="27" width="3" height="3" fill="#FF2239"/>
<rect opacity="0.2" x="27" y="30" width="3" height="3" fill="#FF2239"/>
<rect opacity="0.2" x="27" y="33" width="3" height="3" fill="#FF2239"/>
<rect opacity="0.2" x="27" y="36" width="3" height="3" fill="#FF2239"/>
<rect opacity="0.2" x="30" y="15" width="3" height="3" fill="#FF2239"/>
<rect x="30" y="18" width="3" height="3" fill="#FF2239"/>
<rect opacity="0.2" x="30" y="21" width="3" height="3" fill="#FF2239"/>
<rect opacity="0.2" x="30" y="24" width="3" height="3" fill="#FF2239"/>
<rect opacity="0.2" x="30" y="27" width="3" height="3" fill="#FF2239"/>
<rect opacity="0.2" x="30" y="30" width="3" height="3" fill="#FF2239"/>
<rect opacity="0.2" x="30" y="33" width="3" height="3" fill="#FF2239"/>
<rect opacity="0.2" x="30" y="36" width="3" height="3" fill="#FF2239"/>
<rect x="33" y="15" width="3" height="3" fill="#FF2239"/>
<rect opacity="0.2" x="33" y="18" width="3" height="3" fill="#FF2239"/>
<rect opacity="0.2" x="33" y="21" width="3" height="3" fill="#FF2239"/>
<rect opacity="0.2" x="33" y="24" width="3" height="3" fill="#FF2239"/>
<rect opacity="0.2" x="33" y="27" width="3" height="3" fill="#FF2239"/>
<rect opacity="0.2" x="33" y="30" width="3" height="3" fill="#FF2239"/>
<rect opacity="0.2" x="33" y="33" width="3" height="3" fill="#FF2239"/>
<rect opacity="0.2" x="33" y="36" width="3" height="3" fill="#FF2239"/>
<rect x="36" y="15" width="3" height="3" fill="#FF2239"/>
<rect opacity="0.2" x="36" y="18" width="3" height="3" fill="#FF2239"/>
<rect opacity="0.2" x="36" y="21" width="3" height="3" fill="#FF2239"/>
<rect opacity="0.2" x="36" y="24" width="3" height="3" fill="#FF2239"/>
<rect opacity="0.2" x="36" y="27" width="3" height="3" fill="#FF2239"/>
<rect opacity="0.2" x="36" y="30" width="3" height="3" fill="#FF2239"/>
<rect opacity="0.2" x="36" y="33" width="3" height="3" fill="#FF2239"/>
<rect opacity="0.2" x="36" y="36" width="3" height="3" fill="#FF2239"/>
<rect x="39" y="15" width="3" height="3" fill="#FF2239"/>
<rect opacity="0.2" x="39" y="18" width="3" height="3" fill="#FF2239"/>
<rect opacity="0.2" x="39" y="21" width="3" height="3" fill="#FF2239"/>
<rect opacity="0.2" x="39" y="24" width="3" height="3" fill="#FF2239"/>
<rect opacity="0.2" x="39" y="27" width="3" height="3" fill="#FF2239"/>
<rect opacity="0.2" x="39" y="30" width="3" height="3" fill="#FF2239"/>
<rect opacity="0.2" x="39" y="33" width="3" height="3" fill="#FF2239"/>
<rect opacity="0.2" x="39" y="36" width="3" height="3" fill="#FF2239"/>
<rect opacity="0.2" x="42" y="15" width="3" height="3" fill="#FF2239"/>
<rect x="42" y="18" width="3" height="3" fill="#FF2239"/>
<rect opacity="0.2" x="42" y="21" width="3" height="3" fill="#FF2239"/>
<rect opacity="0.2" x="42" y="24" width="3" height="3" fill="#FF2239"/>
<rect opacity="0.2" x="42" y="27" width="3" height="3" fill="#FF2239"/>
<rect opacity="0.2" x="42" y="30" width="3" height="3" fill="#FF2239"/>
<rect opacity="0.2" x="42" y="33" width="3" height="3" fill="#FF2239"/>
<rect opacity="0.2" x="42" y="36" width="3" height="3" fill="#FF2239"/>
<rect opacity="0.2" x="45" y="15" width="3" height="3" fill="#FF2239"/>
<rect x="45" y="18" width="3" height="3" fill="#FF2239"/>
<rect opacity="0.2" x="45" y="21" width="3" height="3" fill="#FF2239"/>
<rect opacity="0.2" x="45" y="24" width="3" height="3" fill="#FF2239"/>
<rect opacity="0.2" x="45" y="27" width="3" height="3" fill="#FF2239"/>
<rect opacity="0.2" x="45" y="30" width="3" height="3" fill="#FF2239"/>
<rect opacity="0.2" x="45" y="33" width="3" height="3" fill="#FF2239"/>
<rect opacity="0.2" x="45" y="36" width="3" height="3" fill="#FF2239"/>
<rect opacity="0.2" x="48" y="15" width="3" height="3" fill="#FF2239"/>
<rect opacity="0.2" x="48" y="18" width="3" height="3" fill="#FF2239"/>
<rect x="48" y="21" width="3" height="3" fill="#FF2239"/>
<rect opacity="0.2" x="48" y="24" width="3" height="3" fill="#FF2239"/>
<rect opacity="0.2" x="48" y="27" width="3" height="3" fill="#FF2239"/>
<rect opacity="0.2" x="48" y="30" width="3" height="3" fill="#FF2239"/>
<rect opacity="0.2" x="48" y="33" width="3" height="3" fill="#FF2239"/>
<rect opacity="0.2" x="48" y="36" width="3" height="3" fill="#FF2239"/>
<rect opacity="0.2" x="51" y="15" width="3" height="3" fill="#FF2239"/>
<rect opacity="0.2" x="51" y="18" width="3" height="3" fill="#FF2239"/>
<rect opacity="0.2" x="51" y="21" width="3" height="3" fill="#FF2239"/>
<rect x="51" y="24" width="3" height="3" fill="#FF2239"/>
<rect opacity="0.2" x="51" y="27" width="3" height="3" fill="#FF2239"/>
<rect opacity="0.2" x="51" y="30" width="3" height="3" fill="#FF2239"/>
<rect opacity="0.2" x="51" y="33" width="3" height="3" fill="#FF2239"/>
<rect opacity="0.2" x="51" y="36" width="3" height="3" fill="#FF2239"/>
<rect opacity="0.2" x="54" y="15" width="3" height="3" fill="#FF2239"/>
<rect opacity="0.2" x="54" y="18" width="3" height="3" fill="#FF2239"/>
<rect opacity="0.2" x="54" y="21" width="3" height="3" fill="#FF2239"/>
<rect opacity="0.2" x="54" y="24" width="3" height="3" fill="#FF2239"/>
<rect x="54" y="27" width="3" height="3" fill="#FF2239"/>
<rect opacity="0.2" x="54" y="30" width="3" height="3" fill="#FF2239"/>
<rect opacity="0.2" x="54" y="33" width="3" height="3" fill="#FF2239"/>
<rect opacity="0.2" x="54" y="36" width="3" height="3" fill="#FF2239"/>
<rect opacity="0.2" x="57" y="15" width="3" height="3" fill="#FF2239"/>
<rect opacity="0.2" x="57" y="18" width="3" height="3" fill="#FF2239"/>
<rect opacity="0.2" x="57" y="21" width="3" height="3" fill="#FF2239"/>
<rect opacity="0.2" x="57" y="24" width="3" height="3" fill="#FF2239"/>
<rect opacity="0.2" x="57" y="27" width="3" height="3" fill="#FF2239"/>
<rect x="57" y="30" width="3" height="3" fill="#FF2239"/>
<rect opacity="0.2" x="57" y="33" width="3" height="3" fill="#FF2239"/>
<rect opacity="0.2" x="57" y="36" width="3" height="3" fill="#FF2239"/>
<rect opacity="0.2" x="60" y="15" width="3" height="3" fill="#FF2239"/>
<rect opacity="0.2" x="60" y="18" width="3" height="3" fill="#FF2239"/>
<rect opacity="0.2" x="60" y="21" width="3" height="3" fill="#FF2239"/>
<rect opacity="0.2" x="60" y="24" width="3" height="3" fill="#FF2239"/>
<rect opacity="0.2" x="60" y="27" width="3" height="3" fill="#FF2239"/>
<rect opacity="0.2" x="60" y="30" width="3" height="3" fill="#FF2239"/>
<rect x="60" y="33" width="3" height="3" fill="#FF2239"/>
<rect opacity="0.2" x="60" y="36" width="3" height="3" fill="#FF2239"/>
<rect opacity="0.2" x="63" y="15" width="3" height="3" fill="#FF2239"/>
<rect opacity="0.2" x="63" y="18" width="3" height="3" fill="#FF2239"/>
<rect opacity="0.2" x="63" y="21" width="3" height="3" fill="#FF2239"/>
<rect opacity="0.2" x="63" y="24" width="3" height="3" fill="#FF2239"/>
<rect opacity="0.2" x="63" y="27" width="3" height="3" fill="#FF2239"/>
<rect opacity="0.2" x="63" y="30" width="3" height="3" fill="#FF2239"/>
<rect x="63" y="33" width="3" height="3" fill="#FF2239"/>
<rect opacity="0.2" x="63" y="36" width="3" height="3" fill="#FF2239"/>
<rect opacity="0.2" x="66" y="15" width="3" height="3" fill="#FF2239"/>
<rect opacity="0.2" x="66" y="18" width="3" height="3" fill="#FF2239"/>
<rect opacity="0.2" x="66" y="21" width="3" height="3" fill="#FF2239"/>
<rect opacity="0.2" x="66" y="24" width="3" height="3" fill="#FF2239"/>
<rect opacity="0.2" x="66" y="27" width="3" height="3" fill="#FF2239"/>
<rect opacity="0.2" x="66" y="30" width="3" height="3" fill="#FF2239"/>
<rect opacity="0.2" x="66" y="33" width="3" height="3" fill="#FF2239"/>
<rect x="66" y="36" width="3" height="3" fill="#FF2239"/>
<rect opacity="0.2" x="69" y="15" width="3" height="3" fill="#FF2239"/>
<rect opacity="0.2" x="69" y="18" width="3" height="3" fill="#FF2239"/>
<rect opacity="0.2" x="69" y="21" width="3" height="3" fill="#FF2239"/>
<rect opacity="0.2" x="69" y="24" width="3" height="3" fill="#FF2239"/>
<rect opacity="0.2" x="69" y="27" width="3" height="3" fill="#FF2239"/>
<rect opacity="0.2" x="69" y="30" width="3" height="3" fill="#FF2239"/>
<rect opacity="0.2" x="69" y="33" width="3" height="3" fill="#FF2239"/>
<rect x="69" y="36" width="3" height="3" fill="#FF2239"/>
<rect opacity="0.2" x="72" y="15" width="3" height="3" fill="#FF2239"/>
<rect opacity="0.2" x="72" y="18" width="3" height="3" fill="#FF2239"/>
<rect opacity="0.2" x="72" y="21" width="3" height="3" fill="#FF2239"/>
<rect opacity="0.2" x="72" y="24" width="3" height="3" fill="#FF2239"/>
<rect opacity="0.2" x="72" y="27" width="3" height="3" fill="#FF2239"/>
<rect opacity="0.2" x="72" y="30" width="3" height="3" fill="#FF2239"/>
<rect opacity="0.2" x="72" y="33" width="3" height="3" fill="#FF2239"/>
<rect x="72" y="36" width="3" height="3" fill="#FF2239"/>
<rect opacity="0.2" x="75" y="15" width="3" height="3" fill="#FF2239"/>
<rect opacity="0.2" x="75" y="18" width="3" height="3" fill="#FF2239"/>
<rect opacity="0.2" x="75" y="21" width="3" height="3" fill="#FF2239"/>
<rect opacity="0.2" x="75" y="24" width="3" height="3" fill="#FF2239"/>
<rect opacity="0.2" x="75" y="27" width="3" height="3" fill="#FF2239"/>
<rect opacity="0.2" x="75" y="30" width="3" height="3" fill="#FF2239"/>
<rect x="75" y="33" width="3" height="3" fill="#FF2239"/>
<rect opacity="0.2" x="75" y="36" width="3" height="3" fill="#FF2239"/>
<rect opacity="0.2" x="78" y="15" width="3" height="3" fill="#FF2239"/>
<rect opacity="0.2" x="78" y="18" width="3" height="3" fill="#FF2239"/>
<rect opacity="0.2" x="78" y="21" width="3" height="3" fill="#FF2239"/>
<rect opacity="0.2" x="78" y="24" width="3" height="3" fill="#FF2239"/>
<rect opacity="0.2" x="78" y="27" width="3" height="3" fill="#FF2239"/>
<rect opacity="0.2" x="78" y="30" width="3" height="3" fill="#FF2239"/>
<rect x="78" y="33" width="3" height="3" fill="#FF2239"/>
<rect opacity="0.2" x="78" y="36" width="3" height="3" fill="#FF2239"/>
<rect opacity="0.2" x="81" y="15" width="3" height="3" fill="#FF2239"/>
<rect opacity="0.2" x="81" y="18" width="3" height="3" fill="#FF2239"/>
<rect opacity="0.2" x="81" y="21" width="3" height="3" fill="#FF2239"/>
<rect opacity="0.2" x="81" y="24" width="3" height="3" fill="#FF2239"/>
<rect opacity="0.2" x="81" y="27" width="3" height="3" fill="#FF2239"/>
<rect x="81" y="30" width="3" height="3" fill="#FF2239"/>
<rect opacity="0.2" x="81" y="33" width="3" height="3" fill="#FF2239"/>
<rect opacity="0.2" x="81" y="36" width="3" height="3" fill="#FF2239"/>
<rect opacity="0.2" x="84" y="15" width="3" height="3" fill="#FF2239"/>
<rect opacity="0.2" x="84" y="18" width="3" height="3" fill="#FF2239"/>
<rect opacity="0.2" x="84" y="21" width="3" height="3" fill="#FF2239"/>
<rect opacity="0.2" x="84" y="24" width="3" height="3" fill="#FF2239"/>
<rect x="84" y="27" width="3" height="3" fill="#FF2239"/>
<rect opacity="0.2" x="84" y="30" width="3" height="3" fill="#FF2239"/>
<rect opacity="0.2" x="84" y="33" width="3" height="3" fill="#FF2239"/>
<rect opacity="0.2" x="84" y="36" width="3" height="3" fill="#FF2239"/>
<rect opacity="0.2" x="87" y="15" width="3" height="3" fill="#FF2239"/>
<rect opacity="0.2" x="87" y="18" width="3" height="3" fill="#FF2239"/>
<rect opacity="0.2" x="87" y="21" width="3" height="3" fill="#FF2239"/>
<rect x="87" y="24" width="3" height="3" fill="#FF2239"/>
<rect opacity="0.2" x="87" y="27" width="3" height="3" fill="#FF2239"/>
<rect opacity="0.2" x="87" y="30" width="3" height="3" fill="#FF2239"/>
<rect opacity="0.2" x="87" y="33" width="3" height="3" fill="#FF2239"/>
<rect opacity="0.2" x="87" y="36" width="3" height="3" fill="#FF2239"/>
<rect opacity="0.2" x="90" y="15" width="3" height="3" fill="#FF2239"/>
<rect opacity="0.2" x="90" y="18" width="3" height="3" fill="#FF2239"/>
<rect x="90" y="21" width="3" height="3" fill="#FF2239"/>
<rect opacity="0.2" x="90" y="24" width="3" height="3" fill="#FF2239"/>
<rect opacity="0.2" x="90" y="27" width="3" height="3" fill="#FF2239"/>
<rect opacity="0.2" x="90" y="30" width="3" height="3" fill="#FF2239"/>
<rect opacity="0.2" x="90" y="33" width="3" height="3" fill="#FF2239"/>
<rect opacity="0.2" x="90" y="36" width="3" height="3" fill="#FF2239"/>
<rect opacity="0.2" x="93" y="15" width="3" height="3" fill="#FF2239"/>
<rect x="93" y="18" width="3" height="3" fill="#FF2239"/>
<rect opacity="0.2" x="93" y="21" width="3" height="3" fill="#FF2239"/>
<rect opacity="0.2" x="93" y="24" width="3" height="3" fill="#FF2239"/>
<rect opacity="0.2" x="93" y="27" width="3" height="3" fill="#FF2239"/>
<rect opacity="0.2" x="93" y="30" width="3" height="3" fill="#FF2239"/>
<rect opacity="0.2" x="93" y="33" width="3" height="3" fill="#FF2239"/>
<rect opacity="0.2" x="93" y="36" width="3" height="3" fill="#FF2239"/>
<rect opacity="0.2" x="96" y="15" width="3" height="3" fill="#FF2239"/>
<rect x="96" y="18" width="3" height="3" fill="#FF2239"/>
<rect opacity="0.2" x="96" y="21" width="3" height="3" fill="#FF2239"/>
<rect opacity="0.2" x="96" y="24" width="3" height="3" fill="#FF2239"/>
<rect opacity="0.2" x="96" y="27" width="3" height="3" fill="#FF2239"/>
<rect opacity="0.2" x="96" y="30" width="3" height="3" fill="#FF2239"/>
<rect opacity="0.2" x="96" y="33" width="3" height="3" fill="#FF2239"/>
<rect opacity="0.2" x="96" y="36" width="3" height="3" fill="#FF2239"/>
<rect x="99" y="15" width="3" height="3" fill="#FF2239"/>
<rect opacity="0.2" x="99" y="18" width="3" height="3" fill="#FF2239"/>
<rect opacity="0.2" x="99" y="21" width="3" height="3" fill="#FF2239"/>
<rect opacity="0.2" x="99" y="24" width="3" height="3" fill="#FF2239"/>
<rect opacity="0.2" x="99" y="27" width="3" height="3" fill="#FF2239"/>
<rect opacity="0.2" x="99" y="30" width="3" height="3" fill="#FF2239"/>
<rect opacity="0.2" x="99" y="33" width="3" height="3" fill="#FF2239"/>
<rect opacity="0.2" x="99" y="36" width="3" height="3" fill="#FF2239"/>
<rect x="102" y="15" width="3" height="3" fill="#FF2239"/>
<rect opacity="0.2" x="102" y="18" width="3" height="3" fill="#FF2239"/>
<rect opacity="0.2" x="102" y="21" width="3" height="3" fill="#FF2239"/>
<rect opacity="0.2" x="102" y="24" width="3" height="3" fill="#FF2239"/>
<rect opacity="0.2" x="102" y="27" width="3" height="3" fill="#FF2239"/>
<rect opacity="0.2" x="102" y="30" width="3" height="3" fill="#FF2239"/>
<rect opacity="0.2" x="102" y="33" width="3" height="3" fill="#FF2239"/>
<rect opacity="0.2" x="102" y="36" width="3" height="3" fill="#FF2239"/>
<rect x="105" y="15" width="3" height="3" fill="#FF2239"/>
<rect opacity="0.2" x="105" y="18" width="3" height="3" fill="#FF2239"/>
<rect opacity="0.2" x="105" y="21" width="3" height="3" fill="#FF2239"/>
<rect opacity="0.2" x="105" y="24" width="3" height="3" fill="#FF2239"/>
<rect opacity="0.2" x="105" y="27" width="3" height="3" fill="#FF2239"/>
<rect opacity="0.2" x="105" y="30" width="3" height="3" fill="#FF2239"/>
<rect opacity="0.2" x="105" y="33" width="3" height="3" fill="#FF2239"/>
<rect opacity="0.2" x="105" y="36" width="3" height="3" fill="#FF2239"/>
<rect opacity="0.2" x="153" y="15" width="3" height="3" fill="#FF2239"/>
<rect opacity="0.2" x="153" y="18" width="3" height="3" fill="#FF2239"/>
<rect opacity="0.2" x="153" y="21" width="3" height="3" fill="#FF2239"/>
<rect x="153" y="24" width="3" height="3" fill="#FF2239"/>
<rect opacity="0.2" x="153" y="27" width="3" height="3" fill="#FF2239"/>
<rect opacity="0.2" x="153" y="30" width="3" height="3" fill="#FF2239"/>
<rect opacity="0.2" x="153" y="33" width="3" height="3" fill="#FF2239"/>
<rect opacity="0.2" x="153" y="36" width="3" height="3" fill="#FF2239"/>
<rect opacity="0.2" x="108" y="15" width="3" height="3" fill="#FF2239"/>
<rect x="108" y="18" width="3" height="3" fill="#FF2239"/>
<rect opacity="0.2" x="108" y="21" width="3" height="3" fill="#FF2239"/>
<rect opacity="0.2" x="108" y="24" width="3" height="3" fill="#FF2239"/>
<rect opacity="0.2" x="108" y="27" width="3" height="3" fill="#FF2239"/>
<rect opacity="0.2" x="108" y="30" width="3" height="3" fill="#FF2239"/>
<rect opacity="0.2" x="108" y="33" width="3" height="3" fill="#FF2239"/>
<rect opacity="0.2" x="108" y="36" width="3" height="3" fill="#FF2239"/>
<rect opacity="0.2" x="156" y="15" width="3" height="3" fill="#FF2239"/>
<rect opacity="0.2" x="156" y="18" width="3" height="3" fill="#FF2239"/>
<rect x="156" y="21" width="3" height="3" fill="#FF2239"/>
<rect opacity="0.2" x="156" y="24" width="3" height="3" fill="#FF2239"/>
<rect opacity="0.2" x="156" y="27" width="3" height="3" fill="#FF2239"/>
<rect opacity="0.2" x="156" y="30" width="3" height="3" fill="#FF2239"/>
<rect opacity="0.2" x="156" y="33" width="3" height="3" fill="#FF2239"/>
<rect opacity="0.2" x="156" y="36" width="3" height="3" fill="#FF2239"/>
<rect opacity="0.2" x="111" y="15" width="3" height="3" fill="#FF2239"/>
<rect x="111" y="18" width="3" height="3" fill="#FF2239"/>
<rect opacity="0.2" x="111" y="21" width="3" height="3" fill="#FF2239"/>
<rect opacity="0.2" x="111" y="24" width="3" height="3" fill="#FF2239"/>
<rect opacity="0.2" x="111" y="27" width="3" height="3" fill="#FF2239"/>
<rect opacity="0.2" x="111" y="30" width="3" height="3" fill="#FF2239"/>
<rect opacity="0.2" x="111" y="33" width="3" height="3" fill="#FF2239"/>
<rect opacity="0.2" x="111" y="36" width="3" height="3" fill="#FF2239"/>
<rect opacity="0.2" x="159" y="15" width="3" height="3" fill="#FF2239"/>
<rect x="159" y="18" width="3" height="3" fill="#FF2239"/>
<rect opacity="0.2" x="159" y="21" width="3" height="3" fill="#FF2239"/>
<rect opacity="0.2" x="159" y="24" width="3" height="3" fill="#FF2239"/>
<rect opacity="0.2" x="159" y="27" width="3" height="3" fill="#FF2239"/>
<rect opacity="0.2" x="159" y="30" width="3" height="3" fill="#FF2239"/>
<rect opacity="0.2" x="159" y="33" width="3" height="3" fill="#FF2239"/>
<rect opacity="0.2" x="159" y="36" width="3" height="3" fill="#FF2239"/>
<rect opacity="0.2" x="114" y="15" width="3" height="3" fill="#FF2239"/>
<rect opacity="0.2" x="114" y="18" width="3" height="3" fill="#FF2239"/>
<rect x="114" y="21" width="3" height="3" fill="#FF2239"/>
<rect opacity="0.2" x="114" y="24" width="3" height="3" fill="#FF2239"/>
<rect opacity="0.2" x="114" y="27" width="3" height="3" fill="#FF2239"/>
<rect opacity="0.2" x="114" y="30" width="3" height="3" fill="#FF2239"/>
<rect opacity="0.2" x="114" y="33" width="3" height="3" fill="#FF2239"/>
<rect opacity="0.2" x="114" y="36" width="3" height="3" fill="#FF2239"/>
<rect opacity="0.2" x="162" y="15" width="3" height="3" fill="#FF2239"/>
<rect x="162" y="18" width="3" height="3" fill="#FF2239"/>
<rect opacity="0.2" x="162" y="21" width="3" height="3" fill="#FF2239"/>
<rect opacity="0.2" x="162" y="24" width="3" height="3" fill="#FF2239"/>
<rect opacity="0.2" x="162" y="27" width="3" height="3" fill="#FF2239"/>
<rect opacity="0.2" x="162" y="30" width="3" height="3" fill="#FF2239"/>
<rect opacity="0.2" x="162" y="33" width="3" height="3" fill="#FF2239"/>
<rect opacity="0.2" x="162" y="36" width="3" height="3" fill="#FF2239"/>
<rect opacity="0.2" x="117" y="15" width="3" height="3" fill="#FF2239"/>
<rect opacity="0.2" x="117" y="18" width="3" height="3" fill="#FF2239"/>
<rect opacity="0.2" x="117" y="21" width="3" height="3" fill="#FF2239"/>
<rect x="117" y="24" width="3" height="3" fill="#FF2239"/>
<rect opacity="0.2" x="117" y="27" width="3" height="3" fill="#FF2239"/>
<rect opacity="0.2" x="117" y="30" width="3" height="3" fill="#FF2239"/>
<rect opacity="0.2" x="117" y="33" width="3" height="3" fill="#FF2239"/>
<rect opacity="0.2" x="117" y="36" width="3" height="3" fill="#FF2239"/>
<rect x="165" y="15" width="3" height="3" fill="#FF2239"/>
<rect opacity="0.2" x="165" y="18" width="3" height="3" fill="#FF2239"/>
<rect opacity="0.2" x="165" y="21" width="3" height="3" fill="#FF2239"/>
<rect opacity="0.2" x="165" y="24" width="3" height="3" fill="#FF2239"/>
<rect opacity="0.2" x="165" y="27" width="3" height="3" fill="#FF2239"/>
<rect opacity="0.2" x="165" y="30" width="3" height="3" fill="#FF2239"/>
<rect opacity="0.2" x="165" y="33" width="3" height="3" fill="#FF2239"/>
<rect opacity="0.2" x="165" y="36" width="3" height="3" fill="#FF2239"/>
<rect opacity="0.2" x="120" y="15" width="3" height="3" fill="#FF2239"/>
<rect opacity="0.2" x="120" y="18" width="3" height="3" fill="#FF2239"/>
<rect opacity="0.2" x="120" y="21" width="3" height="3" fill="#FF2239"/>
<rect opacity="0.2" x="120" y="24" width="3" height="3" fill="#FF2239"/>
<rect x="120" y="27" width="3" height="3" fill="#FF2239"/>
<rect opacity="0.2" x="120" y="30" width="3" height="3" fill="#FF2239"/>
<rect opacity="0.2" x="120" y="33" width="3" height="3" fill="#FF2239"/>
<rect opacity="0.2" x="120" y="36" width="3" height="3" fill="#FF2239"/>
<rect opacity="0.2" x="123" y="15" width="3" height="3" fill="#FF2239"/>
<rect opacity="0.2" x="123" y="18" width="3" height="3" fill="#FF2239"/>
<rect opacity="0.2" x="123" y="21" width="3" height="3" fill="#FF2239"/>
<rect opacity="0.2" x="123" y="24" width="3" height="3" fill="#FF2239"/>
<rect opacity="0.2" x="123" y="27" width="3" height="3" fill="#FF2239"/>
<rect x="123" y="30" width="3" height="3" fill="#FF2239"/>
<rect opacity="0.2" x="123" y="33" width="3" height="3" fill="#FF2239"/>
<rect opacity="0.2" x="123" y="36" width="3" height="3" fill="#FF2239"/>
<rect opacity="0.2" x="126" y="15" width="3" height="3" fill="#FF2239"/>
<rect opacity="0.2" x="126" y="18" width="3" height="3" fill="#FF2239"/>
<rect opacity="0.2" x="126" y="21" width="3" height="3" fill="#FF2239"/>
<rect opacity="0.2" x="126" y="24" width="3" height="3" fill="#FF2239"/>
<rect opacity="0.2" x="126" y="27" width="3" height="3" fill="#FF2239"/>
<rect opacity="0.2" x="126" y="30" width="3" height="3" fill="#FF2239"/>
<rect x="126" y="33" width="3" height="3" fill="#FF2239"/>
<rect opacity="0.2" x="126" y="36" width="3" height="3" fill="#FF2239"/>
<rect opacity="0.2" x="129" y="15" width="3" height="3" fill="#FF2239"/>
<rect opacity="0.2" x="129" y="18" width="3" height="3" fill="#FF2239"/>
<rect opacity="0.2" x="129" y="21" width="3" height="3" fill="#FF2239"/>
<rect opacity="0.2" x="129" y="24" width="3" height="3" fill="#FF2239"/>
<rect opacity="0.2" x="129" y="27" width="3" height="3" fill="#FF2239"/>
<rect opacity="0.2" x="129" y="30" width="3" height="3" fill="#FF2239"/>
<rect x="129" y="33" width="3" height="3" fill="#FF2239"/>
<rect opacity="0.2" x="129" y="36" width="3" height="3" fill="#FF2239"/>
<rect opacity="0.2" x="132" y="15" width="3" height="3" fill="#FF2239"/>
<rect opacity="0.2" x="132" y="18" width="3" height="3" fill="#FF2239"/>
<rect opacity="0.2" x="132" y="21" width="3" height="3" fill="#FF2239"/>
<rect opacity="0.2" x="132" y="24" width="3" height="3" fill="#FF2239"/>
<rect opacity="0.2" x="132" y="27" width="3" height="3" fill="#FF2239"/>
<rect opacity="0.2" x="132" y="30" width="3" height="3" fill="#FF2239"/>
<rect opacity="0.2" x="132" y="33" width="3" height="3" fill="#FF2239"/>
<rect x="132" y="36" width="3" height="3" fill="#FF2239"/>
<rect opacity="0.2" x="135" y="15" width="3" height="3" fill="#FF2239"/>
<rect opacity="0.2" x="135" y="18" width="3" height="3" fill="#FF2239"/>
<rect opacity="0.2" x="135" y="21" width="3" height="3" fill="#FF2239"/>
<rect opacity="0.2" x="135" y="24" width="3" height="3" fill="#FF2239"/>
<rect opacity="0.2" x="135" y="27" width="3" height="3" fill="#FF2239"/>
<rect opacity="0.2" x="135" y="30" width="3" height="3" fill="#FF2239"/>
<rect opacity="0.2" x="135" y="33" width="3" height="3" fill="#FF2239"/>
<rect x="135" y="36" width="3" height="3" fill="#FF2239"/>
<rect opacity="0.2" x="138" y="15" width="3" height="3" fill="#FF2239"/>
<rect opacity="0.2" x="138" y="18" width="3" height="3" fill="#FF2239"/>
<rect opacity="0.2" x="138" y="21" width="3" height="3" fill="#FF2239"/>
<rect opacity="0.2" x="138" y="24" width="3" height="3" fill="#FF2239"/>
<rect opacity="0.2" x="138" y="27" width="3" height="3" fill="#FF2239"/>
<rect opacity="0.2" x="138" y="30" width="3" height="3" fill="#FF2239"/>
<rect opacity="0.2" x="138" y="33" width="3" height="3" fill="#FF2239"/>
<rect x="138" y="36" width="3" height="3" fill="#FF2239"/>
<rect opacity="0.2" x="141" y="15" width="3" height="3" fill="#FF2239"/>
<rect opacity="0.2" x="141" y="18" width="3" height="3" fill="#FF2239"/>
<rect opacity="0.2" x="141" y="21" width="3" height="3" fill="#FF2239"/>
<rect opacity="0.2" x="141" y="24" width="3" height="3" fill="#FF2239"/>
<rect opacity="0.2" x="141" y="27" width="3" height="3" fill="#FF2239"/>
<rect opacity="0.2" x="141" y="30" width="3" height="3" fill="#FF2239"/>
<rect x="141" y="33" width="3" height="3" fill="#FF2239"/>
<rect opacity="0.2" x="141" y="36" width="3" height="3" fill="#FF2239"/>
<rect opacity="0.2" x="144" y="15" width="3" height="3" fill="#FF2239"/>
<rect opacity="0.2" x="144" y="18" width="3" height="3" fill="#FF2239"/>
<rect opacity="0.2" x="144" y="21" width="3" height="3" fill="#FF2239"/>
<rect opacity="0.2" x="144" y="24" width="3" height="3" fill="#FF2239"/>
<rect opacity="0.2" x="144" y="27" width="3" height="3" fill="#FF2239"/>
<rect opacity="0.2" x="144" y="30" width="3" height="3" fill="#FF2239"/>
<rect x="144" y="33" width="3" height="3" fill="#FF2239"/>
<rect opacity="0.2" x="144" y="36" width="3" height="3" fill="#FF2239"/>
<rect opacity="0.2" x="147" y="15" width="3" height="3" fill="#FF2239"/>
<rect opacity="0.2" x="147" y="18" width="3" height="3" fill="#FF2239"/>
<rect opacity="0.2" x="147" y="21" width="3" height="3" fill="#FF2239"/>
<rect opacity="0.2" x="147" y="24" width="3" height="3" fill="#FF2239"/>
<rect opacity="0.2" x="147" y="27" width="3" height="3" fill="#FF2239"/>
<rect x="147" y="30" width="3" height="3" fill="#FF2239"/>
<rect opacity="0.2" x="147" y="33" width="3" height="3" fill="#FF2239"/>
<rect opacity="0.2" x="147" y="36" width="3" height="3" fill="#FF2239"/>
<rect opacity="0.2" x="150" y="15" width="3" height="3" fill="#FF2239"/>
<rect opacity="0.2" x="150" y="18" width="3" height="3" fill="#FF2239"/>
<rect opacity="0.2" x="150" y="21" width="3" height="3" fill="#FF2239"/>
<rect opacity="0.2" x="150" y="24" width="3" height="3" fill="#FF2239"/>
<rect x="150" y="27" width="3" height="3" fill="#FF2239"/>
<rect opacity="0.2" x="150" y="30" width="3" height="3" fill="#FF2239"/>
<rect opacity="0.2" x="150" y="33" width="3" height="3" fill="#FF2239"/>
<rect opacity="0.2" x="150" y="36" width="3" height="3" fill="#FF2239"/>
<rect x="16.5" y="7.5" width="159" height="39" stroke="#9747FF" stroke-width="3" stroke-dasharray="81 81"/>
<rect x="186" y="18" width="3" height="3" fill="#9747FF"/>
<rect width="3" height="3" transform="matrix(1 0 0 -1 3 33)" fill="#9747FF"/>
<rect width="3" height="3" transform="matrix(1 0 0 -1 0 39)" fill="#9747FF"/>
<rect width="3" height="3" transform="matrix(1 0 0 -1 6 45)" fill="#9747FF"/>
<rect width="3" height="3" transform="matrix(1 0 0 -1 6 51)" fill="#9747FF"/>
<rect width="3" height="3" transform="matrix(1 0 0 -1 3 15)" fill="#9747FF"/>
<rect x="183" y="48" width="3" height="3" fill="#9747FF"/>
<rect x="186" y="6" width="3" height="3" fill="#9747FF"/>
<rect x="183" width="3" height="3" fill="#9747FF"/>
</svg>
